<svg width="1350" height="957" viewBox="0 0 1350 957" fill="none" xmlns="http://www.w3.org/2000/svg">
<path fill-rule="evenodd" clip-rule="evenodd" d="M278.536 72.6305L286 86.3694L293.463 72.6305H278.536ZM284.672 87.1848C285.262 88.2717 286.739 88.2717 287.329 87.1848L294.792 73.4459C295.383 72.3587 294.645 71 293.463 71H278.536C277.356 71 276.618 72.3587 277.208 73.4459L284.672 87.1848Z" fill="#FFA31A"/>
<path fill-rule="evenodd" clip-rule="evenodd" d="M278.536 49.5347L286 62.4653L293.463 49.5347H278.536ZM284.672 63.2326C285.262 64.2558 286.739 64.2558 287.329 63.2326L294.792 50.302C295.383 49.2789 294.645 48 293.463 48H278.536C277.356 48 276.618 49.2789 277.208 50.302L284.672 63.2326Z" fill="#FFA31A"/>
<path fill-rule="evenodd" clip-rule="evenodd" d="M278.536 25.5347L286 38.4653L293.463 25.5347H278.536ZM284.672 39.2326C285.262 40.2558 286.739 40.2558 287.329 39.2326L294.792 26.302C295.383 25.2789 294.645 24 293.463 24H278.536C277.356 24 276.618 25.2789 277.208 26.302L284.672 39.2326Z" fill="#FFA31A"/>
<path fill-rule="evenodd" clip-rule="evenodd" d="M278.536 1.63059L286 15.3694L293.463 1.63059H278.536ZM284.672 16.1848C285.262 17.2718 286.739 17.2718 287.329 16.1846L294.792 2.44588C295.383 1.35882 294.645 0 293.463 0L278.536 1.49162e-06C277.356 1.49162e-06 276.618 1.35883 277.208 2.44588L284.672 16.1848Z" fill="#FFA31A"/>
<path fill-rule="evenodd" clip-rule="evenodd" d="M1291.54 861.63L1299 875.369L1306.46 861.63H1291.54ZM1297.67 876.185C1298.26 877.272 1299.74 877.272 1300.33 876.185L1307.79 862.446C1308.38 861.359 1307.64 860 1306.46 860H1291.54C1290.36 860 1289.62 861.359 1290.21 862.446L1297.67 876.185Z" fill="#FFA31A"/>
<path fill-rule="evenodd" clip-rule="evenodd" d="M1291.54 838.535L1299 851.465L1306.46 838.535H1291.54ZM1297.67 852.233C1298.26 853.256 1299.74 853.256 1300.33 852.233L1307.79 839.302C1308.38 838.279 1307.64 837 1306.46 837H1291.54C1290.36 837 1289.62 838.279 1290.21 839.302L1297.67 852.233Z" fill="#FFA31A"/>
<path fill-rule="evenodd" clip-rule="evenodd" d="M1291.54 814.535L1299 827.465L1306.46 814.535H1291.54ZM1297.67 828.233C1298.26 829.256 1299.74 829.256 1300.33 828.233L1307.79 815.302C1308.38 814.279 1307.64 813 1306.46 813H1291.54C1290.36 813 1289.62 814.279 1290.21 815.302L1297.67 828.233Z" fill="#FFA31A"/>
<path fill-rule="evenodd" clip-rule="evenodd" d="M1291.54 790.631L1299 804.369L1306.46 790.631H1291.54ZM1297.67 805.185C1298.26 806.272 1299.74 806.272 1300.33 805.185L1307.79 791.446C1308.38 790.359 1307.64 789 1306.46 789L1291.54 789C1290.36 789 1289.62 790.359 1290.21 791.446L1297.67 805.185Z" fill="#FFA31A"/>
<path fill-rule="evenodd" clip-rule="evenodd" d="M668.536 941.63L676 955.369L683.463 941.63H668.536ZM674.672 956.185C675.262 957.272 676.739 957.272 677.329 956.185L684.792 942.446C685.383 941.359 684.645 940 683.463 940H668.536C667.356 940 666.618 941.359 667.208 942.446L674.672 956.185Z" fill="#FFA31A"/>
<path fill-rule="evenodd" clip-rule="evenodd" d="M668.536 918.535L676 931.465L683.463 918.535H668.536ZM674.672 932.233C675.262 933.256 676.739 933.256 677.329 932.233L684.792 919.302C685.383 918.279 684.645 917 683.463 917H668.536C667.356 917 666.618 918.279 667.208 919.302L674.672 932.233Z" fill="#FFA31A"/>
<path fill-rule="evenodd" clip-rule="evenodd" d="M668.536 894.535L676 907.465L683.463 894.535H668.536ZM674.672 908.233C675.262 909.256 676.739 909.256 677.329 908.233L684.792 895.302C685.383 894.279 684.645 893 683.463 893H668.536C667.356 893 666.618 894.279 667.208 895.302L674.672 908.233Z" fill="#FFA31A"/>
<path fill-rule="evenodd" clip-rule="evenodd" d="M668.536 870.631L676 884.369L683.463 870.631H668.536ZM674.672 885.185C675.262 886.272 676.739 886.272 677.329 885.185L684.792 871.446C685.383 870.359 684.645 869 683.463 869L668.536 869C667.356 869 666.618 870.359 667.208 871.446L674.672 885.185Z" fill="#FFA31A"/>
<path fill-rule="evenodd" clip-rule="evenodd" d="M1.62196 368.535L9.50073 381.465L17.378 368.535H1.62196ZM8.0972 382.233C8.72148 383.256 10.2785 383.256 10.9028 382.233L18.7801 369.302C19.4044 368.279 18.6251 367 17.378 367H1.62196C0.374871 367 -0.40438 368.279 0.219898 369.302L8.0972 382.233Z" fill="#FFA31A"/>
<path fill-rule="evenodd" clip-rule="evenodd" d="M1.62196 344.535L9.50073 357.465L17.378 344.535H1.62196ZM8.0972 358.233C8.72148 359.256 10.2785 359.256 10.9028 358.233L18.7801 345.302C19.4044 344.279 18.6251 343 17.378 343H1.62196C0.374871 343 -0.40438 344.279 0.219898 345.302L8.0972 358.233Z" fill="#FFA31A"/>
<path fill-rule="evenodd" clip-rule="evenodd" d="M1112.62 225.535L1120.5 238.465L1128.38 225.535H1112.62ZM1119.1 239.233C1119.72 240.256 1121.28 240.256 1121.9 239.233L1129.78 226.302C1130.4 225.279 1129.63 224 1128.38 224H1112.62C1111.37 224 1110.6 225.279 1111.22 226.302L1119.1 239.233Z" fill="#FFA31A"/>
<path fill-rule="evenodd" clip-rule="evenodd" d="M1112.62 201.535L1120.5 214.465L1128.38 201.535H1112.62ZM1119.1 215.233C1119.72 216.256 1121.28 216.256 1121.9 215.233L1129.78 202.302C1130.4 201.279 1129.63 200 1128.38 200H1112.62C1111.37 200 1110.6 201.279 1111.22 202.302L1119.1 215.233Z" fill="#FFA31A"/>
<path fill-rule="evenodd" clip-rule="evenodd" d="M350.622 917.535L358.501 930.465L366.378 917.535H350.622ZM357.097 931.233C357.721 932.256 359.279 932.256 359.903 931.233L367.78 918.302C368.404 917.279 367.625 916 366.378 916H350.622C349.375 916 348.596 917.279 349.22 918.302L357.097 931.233Z" fill="#FFA31A"/>
<path fill-rule="evenodd" clip-rule="evenodd" d="M350.622 893.535L358.501 906.465L366.378 893.535H350.622ZM357.097 907.233C357.721 908.256 359.279 908.256 359.903 907.233L367.78 894.302C368.404 893.279 367.625 892 366.378 892H350.622C349.375 892 348.596 893.279 349.22 894.302L357.097 907.233Z" fill="#FFA31A"/>
<path fill-rule="evenodd" clip-rule="evenodd" d="M603.622 143.535L611.501 156.465L619.378 143.535H603.622ZM610.097 157.233C610.721 158.256 612.279 158.256 612.903 157.233L620.78 144.302C621.404 143.279 620.625 142 619.378 142H603.622C602.375 142 601.596 143.279 602.22 144.302L610.097 157.233Z" fill="#FFA31A"/>
<path fill-rule="evenodd" clip-rule="evenodd" d="M603.622 119.535L611.501 132.465L619.378 119.535H603.622ZM610.097 133.233C610.721 134.256 612.279 134.256 612.903 133.233L620.78 120.302C621.404 119.279 620.625 118 619.378 118H603.622C602.375 118 601.596 119.279 602.22 120.302L610.097 133.233Z" fill="#FFA31A"/>
<path fill-rule="evenodd" clip-rule="evenodd" d="M82.4676 191.304C79.814 191.838 77.2309 190.121 76.6959 187.467C76.1624 184.814 77.8802 182.23 80.5324 181.696C83.186 181.162 85.7691 182.879 86.3041 185.533C86.8376 188.186 85.1198 190.77 82.4676 191.304ZM82.7823 192.871C79.2649 193.579 75.8377 191.301 75.1292 187.783C74.4206 184.264 76.6988 180.838 80.2177 180.129C83.7351 179.421 87.1623 181.698 87.8708 185.217C88.5794 188.736 86.3012 192.162 82.7823 192.871Z" fill="#FFA31A"/>
<path fill-rule="evenodd" clip-rule="evenodd" d="M108.468 795.304C105.814 795.838 103.231 794.121 102.696 791.467C102.162 788.814 103.88 786.23 106.532 785.696C109.186 785.162 111.769 786.879 112.304 789.533C112.838 792.186 111.12 794.77 108.468 795.304ZM108.782 796.871C105.265 797.579 101.838 795.301 101.129 791.783C100.421 788.264 102.699 784.838 106.218 784.129C109.735 783.421 113.162 785.698 113.871 789.217C114.579 792.736 112.301 796.162 108.782 796.871Z" fill="#FFA31A"/>
<path fill-rule="evenodd" clip-rule="evenodd" d="M1181.47 260.304C1178.81 260.838 1176.23 259.121 1175.7 256.467C1175.16 253.814 1176.88 251.23 1179.53 250.696C1182.19 250.162 1184.77 251.879 1185.3 254.533C1185.84 257.186 1184.12 259.77 1181.47 260.304ZM1181.78 261.871C1178.26 262.579 1174.84 260.301 1174.13 256.783C1173.42 253.264 1175.7 249.838 1179.22 249.129C1182.74 248.421 1186.16 250.698 1186.87 254.217C1187.58 257.736 1185.3 261.162 1181.78 261.871Z" fill="#FFA31A"/>
<path fill-rule="evenodd" clip-rule="evenodd" d="M419.468 952.304C416.814 952.838 414.231 951.121 413.696 948.467C413.162 945.814 414.88 943.23 417.532 942.696C420.186 942.162 422.769 943.879 423.304 946.533C423.838 949.186 422.12 951.77 419.468 952.304ZM419.782 953.871C416.265 954.579 412.838 952.301 412.129 948.783C411.421 945.264 413.699 941.838 417.218 941.129C420.735 940.421 424.162 942.698 424.871 946.217C425.579 949.736 423.301 953.162 419.782 953.871Z" fill="#FFA31A"/>
<path d="M472.79 201L484 218.684L474.211 237.184L453.21 238L442 220.316L451.789 201.816L472.79 201Z" fill="#FFA31A" fill-opacity="0.25"/>
<path d="M265.79 725L277 742.684L267.211 761.184L246.21 762L235 744.316L244.789 725.816L265.79 725Z" fill="#FFA31A" fill-opacity="0.25"/>
<path d="M1199.79 802L1211 819.684L1201.21 838.184L1180.21 839L1169 821.316L1178.79 802.816L1199.79 802Z" fill="#FFA31A" fill-opacity="0.25"/>
<path d="M1338.79 190L1350 207.684L1340.21 226.184L1319.21 227L1308 209.316L1317.79 190.816L1338.79 190Z" fill="#FFA31A" fill-opacity="0.25"/>
<path d="M576.79 882L588 899.684L578.211 918.184L557.21 919L546 901.316L555.789 882.816L576.79 882Z" fill="#FFA31A" fill-opacity="0.25"/>
</svg>
